<?xml version='1.0' encoding='UTF-8'?>
<svg width="57mm" height="57mm" version="1.1" viewBox="0 0 57 57" xmlns="http://www.w3.org/2000/svg"><path d="M4,4H5V5H4zM5,4H6V5H5zM6,4H7V5H6zM7,4H8V5H7zM8,4H9V5H8zM9,4H10V5H9zM10,4H11V5H10zM13,4H14V5H13zM15,4H16V5H15zM16,4H17V5H16zM17,4H18V5H17zM18,4H19V5H18zM21,4H22V5H21zM22,4H23V5H22zM23,4H24V5H23zM26,4H27V5H26zM28,4H29V5H28zM29,4H30V5H29zM30,4H31V5H30zM35,4H36V5H35zM36,4H37V5H36zM38,4H39V5H38zM39,4H40V5H39zM41,4H42V5H41zM44,4H45V5H44zM46,4H47V5H46zM47,4H48V5H47zM48,4H49V5H48zM49,4H50V5H49zM50,4H51V5H50zM51,4H52V5H51zM52,4H53V5H52zM4,5H5V6H4zM10,5H11V6H10zM14,5H15V6H14zM19,5H20V6H19zM23,5H24V6H23zM24,5H25V6H24zM28,5H29V6H28zM29,5H30V6H29zM30,5H31V6H30zM34,5H35V6H34zM38,5H39V6H38zM39,5H40V6H39zM42,5H43V6H42zM43,5H44V6H43zM44,5H45V6H44zM46,5H47V6H46zM52,5H53V6H52zM4,6H5V7H4zM6,6H7V7H6zM7,6H8V7H7zM8,6H9V7H8zM10,6H11V7H10zM12,6H13V7H12zM16,6H17V7H16zM17,6H18V7H17zM18,6H19V7H18zM19,6H20V7H19zM20,6H21V7H20zM21,6H22V7H21zM22,6H23V7H22zM23,6H24V7H23zM25,6H26V7H25zM29,6H30V7H29zM31,6H32V7H31zM32,6H33V7H32zM33,6H34V7H33zM35,6H36V7H35zM36,6H37V7H36zM38,6H39V7H38zM40,6H41V7H40zM41,6H42V7H41zM43,6H44V7H43zM44,6H45V7H44zM46,6H47V7H46zM48,6H49V7H48zM49,6H50V7H49zM50,6H51V7H50zM52,6H53V7H52zM4,7H5V8H4zM6,7H7V8H6zM7,7H8V8H7zM8,7H9V8H8zM10,7H11V8H10zM12,7H13V8H12zM13,7H14V8H13zM15,7H16V8H15zM21,7H22V8H21zM22,7H23V8H22zM23,7H24V8H23zM24,7H25V8H24zM27,7H28V8H27zM29,7H30V8H29zM30,7H31V8H30zM31,7H32V8H31zM35,7H36V8H35zM37,7H38V8H37zM38,7H39V8H38zM39,7H40V8H39zM40,7H41V8H40zM41,7H42V8H41zM43,7H44V8H43zM46,7H47V8H46zM48,7H49V8H48zM49,7H50V8H49zM50,7H51V8H50zM52,7H53V8H52zM4,8H5V9H4zM6,8H7V9H6zM7,8H8V9H7zM8,8H9V9H8zM10,8H11V9H10zM13,8H14V9H13zM17,8H18V9H17zM21,8H22V9H21zM22,8H23V9H22zM23,8H24V9H23zM26,8H27V9H26zM27,8H28V9H27zM28,8H29V9H28zM29,8H30V9H29zM30,8H31V9H30zM32,8H33V9H32zM33,8H34V9H33zM41,8H42V9H41zM46,8H47V9H46zM48,8H49V9H48zM49,8H50V9H49zM50,8H51V9H50zM52,8H53V9H52zM4,9H5V10H4zM10,9H11V10H10zM13,9H14V10H13zM17,9H18V10H17zM18,9H19V10H18zM19,9H20V10H19zM20,9H21V10H20zM22,9H23V10H22zM25,9H26V10H25zM26,9H27V10H26zM30,9H31V10H30zM34,9H35V10H34zM37,9H38V10H37zM39,9H40V10H39zM40,9H41V10H40zM42,9H43V10H42zM46,9H47V10H46zM52,9H53V10H52zM4,10H5V11H4zM5,10H6V11H5zM6,10H7V11H6zM7,10H8V11H7zM8,10H9V11H8zM9,10H10V11H9zM10,10H11V11H10zM12,10H13V11H12zM14,10H15V11H14zM16,10H17V11H16zM18,10H19V11H18zM20,10H21V11H20zM22,10H23V11H22zM24,10H25V11H24zM26,10H27V11H26zM28,10H29V11H28zM30,10H31V11H30zM32,10H33V11H32zM34,10H35V11H34zM36,10H37V11H36zM38,10H39V11H38zM40,10H41V11H40zM42,10H43V11H42zM44,10H45V11H44zM46,10H47V11H46zM47,10H48V11H47zM48,10H49V11H48zM49,10H50V11H49zM50,10H51V11H50zM51,10H52V11H51zM52,10H53V11H52zM14,11H15V12H14zM15,11H16V12H15zM18,11H19V12H18zM21,11H22V12H21zM23,11H24V12H23zM24,11H25V12H24zM26,11H27V12H26zM30,11H31V12H30zM31,11H32V12H31zM32,11H33V12H32zM33,11H34V12H33zM35,11H36V12H35zM36,11H37V12H36zM37,11H38V12H37zM38,11H39V12H38zM40,11H41V12H40zM41,11H42V12H41zM42,11H43V12H42zM44,11H45V12H44zM7,12H8V13H7zM8,12H9V13H8zM10,12H11V13H10zM11,12H12V13H11zM13,12H14V13H13zM14,12H15V13H14zM15,12H16V13H15zM17,12H18V13H17zM18,12H19V13H18zM20,12H21V13H20zM21,12H22V13H21zM23,12H24V13H23zM24,12H25V13H24zM25,12H26V13H25zM26,12H27V13H26zM27,12H28V13H27zM28,12H29V13H28zM29,12H30V13H29zM30,12H31V13H30zM32,12H33V13H32zM34,12H35V13H34zM36,12H37V13H36zM37,12H38V13H37zM39,12H40V13H39zM42,12H43V13H42zM43,12H44V13H43zM49,12H50V13H49zM50,12H51V13H50zM7,13H8V14H7zM8,13H9V14H8zM11,13H12V14H11zM13,13H14V14H13zM15,13H16V14H15zM16,13H17V14H16zM17,13H18V14H17zM18,13H19V14H18zM21,13H22V14H21zM22,13H23V14H22zM23,13H24V14H23zM25,13H26V14H25zM26,13H27V14H26zM27,13H28V14H27zM32,13H33V14H32zM36,13H37V14H36zM37,13H38V14H37zM38,13H39V14H38zM41,13H42V14H41zM42,13H43V14H42zM43,13H44V14H43zM44,13H45V14H44zM45,13H46V14H45zM46,13H47V14H46zM47,13H48V14H47zM48,13H49V14H48zM49,13H50V14H49zM51,13H52V14H51zM6,14H7V15H6zM9,14H10V15H9zM10,14H11V15H10zM13,14H14V15H13zM14,14H15V15H14zM16,14H17V15H16zM20,14H21V15H20zM21,14H22V15H21zM28,14H29V15H28zM30,14H31V15H30zM32,14H33V15H32zM33,14H34V15H33zM34,14H35V15H34zM36,14H37V15H36zM37,14H38V15H37zM38,14H39V15H38zM43,14H44V15H43zM45,14H46V15H45zM49,14H50V15H49zM52,14H53V15H52zM4,15H5V16H4zM6,15H7V16H6zM7,15H8V16H7zM8,15H9V16H8zM9,15H10V16H9zM12,15H13V16H12zM14,15H15V16H14zM16,15H17V16H16zM18,15H19V16H18zM20,15H21V16H20zM21,15H22V16H21zM27,15H28V16H27zM29,15H30V16H29zM33,15H34V16H33zM34,15H35V16H34zM36,15H37V16H36zM38,15H39V16H38zM43,15H44V16H43zM44,15H45V16H44zM46,15H47V16H46zM48,15H49V16H48zM50,15H51V16H50zM52,15H53V16H52zM6,16H7V17H6zM7,16H8V17H7zM10,16H11V17H10zM11,16H12V17H11zM12,16H13V17H12zM14,16H15V17H14zM15,16H16V17H15zM16,16H17V17H16zM17,16H18V17H17zM18,16H19V17H18zM21,16H22V17H21zM22,16H23V17H22zM24,16H25V17H24zM35,16H36V17H35zM36,16H37V17H36zM37,16H38V17H37zM39,16H40V17H39zM40,16H41V17H40zM41,16H42V17H41zM43,16H44V17H43zM45,16H46V17H45zM46,16H47V17H46zM48,16H49V17H48zM52,16H53V17H52zM4,17H5V18H4zM5,17H6V18H5zM8,17H9V18H8zM9,17H10V18H9zM12,17H13V18H12zM13,17H14V18H13zM15,17H16V18H15zM17,17H18V18H17zM20,17H21V18H20zM21,17H22V18H21zM23,17H24V18H23zM24,17H25V18H24zM25,17H26V18H25zM31,17H32V18H31zM39,17H40V18H39zM40,17H41V18H40zM42,17H43V18H42zM46,17H47V18H46zM47,17H48V18H47zM48,17H49V18H48zM4,18H5V19H4zM6,18H7V19H6zM9,18H10V19H9zM10,18H11V19H10zM11,18H12V19H11zM13,18H14V19H13zM19,18H20V19H19zM20,18H21V19H20zM23,18H24V19H23zM27,18H28V19H27zM28,18H29V19H28zM29,18H30V19H29zM30,18H31V19H30zM31,18H32V19H31zM32,18H33V19H32zM33,18H34V19H33zM34,18H35V19H34zM39,18H40V19H39zM43,18H44V19H43zM45,18H46V19H45zM50,18H51V19H50zM51,18H52V19H51zM52,18H53V19H52zM5,19H6V20H5zM6,19H7V20H6zM7,19H8V20H7zM9,19H10V20H9zM11,19H12V20H11zM12,19H13V20H12zM14,19H15V20H14zM16,19H17V20H16zM22,19H23V20H22zM23,19H24V20H23zM24,19H25V20H24zM27,19H28V20H27zM28,19H29V20H28zM29,19H30V20H29zM30,19H31V20H30zM36,19H37V20H36zM38,19H39V20H38zM42,19H43V20H42zM45,19H46V20H45zM49,19H50V20H49zM50,19H51V20H50zM51,19H52V20H51zM4,20H5V21H4zM5,20H6V21H5zM6,20H7V21H6zM7,20H8V21H7zM10,20H11V21H10zM11,20H12V21H11zM14,20H15V21H14zM15,20H16V21H15zM17,20H18V21H17zM18,20H19V21H18zM19,20H20V21H19zM20,20H21V21H20zM27,20H28V21H27zM29,20H30V21H29zM30,20H31V21H30zM33,20H34V21H33zM34,20H35V21H34zM35,20H36V21H35zM39,20H40V21H39zM40,20H41V21H40zM41,20H42V21H41zM42,20H43V21H42zM44,20H45V21H44zM46,20H47V21H46zM47,20H48V21H47zM48,20H49V21H48zM51,20H52V21H51zM52,20H53V21H52zM4,21H5V22H4zM6,21H7V22H6zM8,21H9V22H8zM9,21H10V22H9zM12,21H13V22H12zM13,21H14V22H13zM16,21H17V22H16zM19,21H20V22H19zM21,21H22V22H21zM25,21H26V22H25zM28,21H29V22H28zM29,21H30V22H29zM30,21H31V22H30zM32,21H33V22H32zM33,21H34V22H33zM35,21H36V22H35zM38,21H39V22H38zM40,21H41V22H40zM44,21H45V22H44zM45,21H46V22H45zM46,21H47V22H46zM48,21H49V22H48zM51,21H52V22H51zM52,21H53V22H52zM9,22H10V23H9zM10,22H11V23H10zM13,22H14V23H13zM14,22H15V23H14zM25,22H26V23H25zM28,22H29V23H28zM31,22H32V23H31zM32,22H33V23H32zM33,22H34V23H33zM36,22H37V23H36zM38,22H39V23H38zM40,22H41V23H40zM41,22H42V23H41zM42,22H43V23H42zM43,22H44V23H43zM44,22H45V23H44zM49,22H50V23H49zM50,22H51V23H50zM52,22H53V23H52zM5,23H6V24H5zM6,23H7V24H6zM7,23H8V24H7zM11,23H12V24H11zM13,23H14V24H13zM14,23H15V24H14zM15,23H16V24H15zM17,23H18V24H17zM18,23H19V24H18zM20,23H21V24H20zM22,23H23V24H22zM24,23H25V24H24zM26,23H27V24H26zM27,23H28V24H27zM31,23H32V24H31zM32,23H33V24H32zM34,23H35V24H34zM35,23H36V24H35zM36,23H37V24H36zM37,23H38V24H37zM46,23H47V24H46zM49,23H50V24H49zM51,23H52V24H51zM52,23H53V24H52zM4,24H5V25H4zM10,24H11V25H10zM11,24H12V25H11zM15,24H16V25H15zM17,24H18V25H17zM20,24H21V25H20zM23,24H24V25H23zM27,24H28V25H27zM30,24H31V25H30zM31,24H32V25H31zM32,24H33V25H32zM33,24H34V25H33zM36,24H37V25H36zM38,24H39V25H38zM39,24H40V25H39zM40,24H41V25H40zM42,24H43V25H42zM44,24H45V25H44zM46,24H47V25H46zM52,24H53V25H52zM4,25H5V26H4zM7,25H8V26H7zM13,25H14V26H13zM14,25H15V26H14zM16,25H17V26H16zM19,25H20V26H19zM20,25H21V26H20zM21,25H22V26H21zM22,25H23V26H22zM23,25H24V26H23zM25,25H26V26H25zM26,25H27V26H26zM28,25H29V26H28zM31,25H32V26H31zM32,25H33V26H32zM33,25H34V26H33zM35,25H36V26H35zM37,25H38V26H37zM38,25H39V26H38zM40,25H41V26H40zM42,25H43V26H42zM43,25H44V26H43zM44,25H45V26H44zM45,25H46V26H45zM46,25H47V26H46zM48,25H49V26H48zM49,25H50V26H49zM6,26H7V27H6zM7,26H8V27H7zM8,26H9V27H8zM9,26H10V27H9zM10,26H11V27H10zM11,26H12V27H11zM12,26H13V27H12zM14,26H15V27H14zM15,26H16V27H15zM16,26H17V27H16zM17,26H18V27H17zM19,26H20V27H19zM24,26H25V27H24zM25,26H26V27H25zM26,26H27V27H26zM27,26H28V27H27zM28,26H29V27H28zM29,26H30V27H29zM30,26H31V27H30zM31,26H32V27H31zM32,26H33V27H32zM33,26H34V27H33zM34,26H35V27H34zM40,26H41V27H40zM44,26H45V27H44zM45,26H46V27H45zM46,26H47V27H46zM47,26H48V27H47zM48,26H49V27H48zM52,26H53V27H52zM4,27H5V28H4zM6,27H7V28H6zM8,27H9V28H8zM12,27H13V28H12zM14,27H15V28H14zM15,27H16V28H15zM17,27H18V28H17zM19,27H20V28H19zM20,27H21V28H20zM21,27H22V28H21zM23,27H24V28H23zM24,27H25V28H24zM25,27H26V28H25zM26,27H27V28H26zM30,27H31V28H30zM34,27H35V28H34zM39,27H40V28H39zM42,27H43V28H42zM43,27H44V28H43zM44,27H45V28H44zM48,27H49V28H48zM49,27H50V28H49zM50,27H51V28H50zM52,27H53V28H52zM5,28H6V29H5zM6,28H7V29H6zM8,28H9V29H8zM10,28H11V29H10zM12,28H13V29H12zM13,28H14V29H13zM15,28H16V29H15zM17,28H18V29H17zM19,28H20V29H19zM20,28H21V29H20zM21,28H22V29H21zM22,28H23V29H22zM25,28H26V29H25zM26,28H27V29H26zM28,28H29V29H28zM30,28H31V29H30zM31,28H32V29H31zM32,28H33V29H32zM34,28H35V29H34zM38,28H39V29H38zM39,28H40V29H39zM40,28H41V29H40zM41,28H42V29H41zM42,28H43V29H42zM43,28H44V29H43zM44,28H45V29H44zM46,28H47V29H46zM48,28H49V29H48zM49,28H50V29H49zM50,28H51V29H50zM4,29H5V30H4zM6,29H7V30H6zM8,29H9V30H8zM12,29H13V30H12zM13,29H14V30H13zM15,29H16V30H15zM16,29H17V30H16zM17,29H18V30H17zM22,29H23V30H22zM23,29H24V30H23zM25,29H26V30H25zM26,29H27V30H26zM30,29H31V30H30zM31,29H32V30H31zM33,29H34V30H33zM34,29H35V30H34zM35,29H36V30H35zM37,29H38V30H37zM42,29H43V30H42zM44,29H45V30H44zM48,29H49V30H48zM49,29H50V30H49zM52,29H53V30H52zM6,30H7V31H6zM7,30H8V31H7zM8,30H9V31H8zM9,30H10V31H9zM10,30H11V31H10zM11,30H12V31H11zM12,30H13V31H12zM13,30H14V31H13zM14,30H15V31H14zM15,30H16V31H15zM18,30H19V31H18zM24,30H25V31H24zM25,30H26V31H25zM26,30H27V31H26zM27,30H28V31H27zM28,30H29V31H28zM29,30H30V31H29zM30,30H31V31H30zM31,30H32V31H31zM33,30H34V31H33zM34,30H35V31H34zM36,30H37V31H36zM37,30H38V31H37zM40,30H41V31H40zM42,30H43V31H42zM43,30H44V31H43zM44,30H45V31H44zM45,30H46V31H45zM46,30H47V31H46zM47,30H48V31H47zM48,30H49V31H48zM50,30H51V31H50zM51,30H52V31H51zM52,30H53V31H52zM4,31H5V32H4zM12,31H13V32H12zM13,31H14V32H13zM16,31H17V32H16zM17,31H18V32H17zM22,31H23V32H22zM24,31H25V32H24zM25,31H26V32H25zM27,31H28V32H27zM28,31H29V32H28zM29,31H30V32H29zM31,31H32V32H31zM33,31H34V32H33zM34,31H35V32H34zM38,31H39V32H38zM39,31H40V32H39zM40,31H41V32H40zM42,31H43V32H42zM43,31H44V32H43zM45,31H46V32H45zM47,31H48V32H47zM48,31H49V32H48zM49,31H50V32H49zM50,31H51V32H50zM51,31H52V32H51zM52,31H53V32H52zM4,32H5V33H4zM6,32H7V33H6zM7,32H8V33H7zM8,32H9V33H8zM10,32H11V33H10zM13,32H14V33H13zM17,32H18V33H17zM18,32H19V33H18zM21,32H22V33H21zM23,32H24V33H23zM24,32H25V33H24zM28,32H29V33H28zM31,32H32V33H31zM32,32H33V33H32zM33,32H34V33H33zM34,32H35V33H34zM36,32H37V33H36zM38,32H39V33H38zM40,32H41V33H40zM41,32H42V33H41zM43,32H44V33H43zM44,32H45V33H44zM46,32H47V33H46zM50,32H51V33H50zM4,33H5V34H4zM5,33H6V34H5zM7,33H8V34H7zM9,33H10V34H9zM13,33H14V34H13zM14,33H15V34H14zM16,33H17V34H16zM18,33H19V34H18zM20,33H21V34H20zM23,33H24V34H23zM24,33H25V34H24zM28,33H29V34H28zM29,33H30V34H29zM31,33H32V34H31zM32,33H33V34H32zM34,33H35V34H34zM35,33H36V34H35zM38,33H39V34H38zM40,33H41V34H40zM41,33H42V34H41zM44,33H45V34H44zM50,33H51V34H50zM51,33H52V34H51zM4,34H5V35H4zM6,34H7V35H6zM7,34H8V35H7zM8,34H9V35H8zM10,34H11V35H10zM11,34H12V35H11zM14,34H15V35H14zM15,34H16V35H15zM20,34H21V35H20zM23,34H24V35H23zM24,34H25V35H24zM26,34H27V35H26zM27,34H28V35H27zM28,34H29V35H28zM29,34H30V35H29zM30,34H31V35H30zM31,34H32V35H31zM32,34H33V35H32zM34,34H35V35H34zM36,34H37V35H36zM37,34H38V35H37zM40,34H41V35H40zM41,34H42V35H41zM44,34H45V35H44zM46,34H47V35H46zM48,34H49V35H48zM49,34H50V35H49zM52,34H53V35H52zM4,35H5V36H4zM7,35H8V36H7zM9,35H10V36H9zM11,35H12V36H11zM16,35H17V36H16zM19,35H20V36H19zM20,35H21V36H20zM23,35H24V36H23zM24,35H25V36H24zM25,35H26V36H25zM28,35H29V36H28zM30,35H31V36H30zM31,35H32V36H31zM32,35H33V36H32zM33,35H34V36H33zM34,35H35V36H34zM36,35H37V36H36zM38,35H39V36H38zM39,35H40V36H39zM40,35H41V36H40zM41,35H42V36H41zM42,35H43V36H42zM43,35H44V36H43zM44,35H45V36H44zM49,35H50V36H49zM51,35H52V36H51zM52,35H53V36H52zM5,36H6V37H5zM8,36H9V37H8zM10,36H11V37H10zM13,36H14V37H13zM16,36H17V37H16zM18,36H19V37H18zM25,36H26V37H25zM26,36H27V37H26zM27,36H28V37H27zM32,36H33V37H32zM34,36H35V37H34zM35,36H36V37H35zM37,36H38V37H37zM38,36H39V37H38zM40,36H41V37H40zM43,36H44V37H43zM44,36H45V37H44zM47,36H48V37H47zM48,36H49V37H48zM51,36H52V37H51zM4,37H5V38H4zM5,37H6V38H5zM8,37H9V38H8zM14,37H15V38H14zM15,37H16V38H15zM19,37H20V38H19zM22,37H23V38H22zM23,37H24V38H23zM27,37H28V38H27zM28,37H29V38H28zM30,37H31V38H30zM31,37H32V38H31zM34,37H35V38H34zM35,37H36V38H35zM36,37H37V38H36zM37,37H38V38H37zM38,37H39V38H38zM39,37H40V38H39zM40,37H41V38H40zM41,37H42V38H41zM42,37H43V38H42zM43,37H44V38H43zM45,37H46V38H45zM46,37H47V38H46zM47,37H48V38H47zM48,37H49V38H48zM49,37H50V38H49zM4,38H5V39H4zM7,38H8V39H7zM8,38H9V39H8zM9,38H10V39H9zM10,38H11V39H10zM12,38H13V39H12zM13,38H14V39H13zM15,38H16V39H15zM16,38H17V39H16zM19,38H20V39H19zM21,38H22V39H21zM25,38H26V39H25zM26,38H27V39H26zM28,38H29V39H28zM31,38H32V39H31zM32,38H33V39H32zM33,38H34V39H33zM36,38H37V39H36zM38,38H39V39H38zM39,38H40V39H39zM40,38H41V39H40zM41,38H42V39H41zM43,38H44V39H43zM44,38H45V39H44zM46,38H47V39H46zM47,38H48V39H47zM48,38H49V39H48zM50,38H51V39H50zM52,38H53V39H52zM4,39H5V40H4zM5,39H6V40H5zM6,39H7V40H6zM8,39H9V40H8zM9,39H10V40H9zM11,39H12V40H11zM12,39H13V40H12zM13,39H14V40H13zM15,39H16V40H15zM18,39H19V40H18zM20,39H21V40H20zM21,39H22V40H21zM22,39H23V40H22zM23,39H24V40H23zM25,39H26V40H25zM26,39H27V40H26zM27,39H28V40H27zM29,39H30V40H29zM30,39H31V40H30zM32,39H33V40H32zM33,39H34V40H33zM34,39H35V40H34zM35,39H36V40H35zM36,39H37V40H36zM38,39H39V40H38zM39,39H40V40H39zM41,39H42V40H41zM43,39H44V40H43zM45,39H46V40H45zM48,39H49V40H48zM49,39H50V40H49zM50,39H51V40H50zM5,40H6V41H5zM7,40H8V41H7zM10,40H11V41H10zM11,40H12V41H11zM13,40H14V41H13zM14,40H15V41H14zM16,40H17V41H16zM17,40H18V41H17zM20,40H21V41H20zM21,40H22V41H21zM23,40H24V41H23zM25,40H26V41H25zM27,40H28V41H27zM28,40H29V41H28zM30,40H31V41H30zM34,40H35V41H34zM35,40H36V41H35zM36,40H37V41H36zM37,40H38V41H37zM38,40H39V41H38zM39,40H40V41H39zM40,40H41V41H40zM41,40H42V41H41zM42,40H43V41H42zM43,40H44V41H43zM46,40H47V41H46zM47,40H48V41H47zM49,40H50V41H49zM51,40H52V41H51zM52,40H53V41H52zM5,41H6V42H5zM8,41H9V42H8zM9,41H10V42H9zM12,41H13V42H12zM14,41H15V42H14zM21,41H22V42H21zM22,41H23V42H22zM24,41H25V42H24zM26,41H27V42H26zM29,41H30V42H29zM31,41H32V42H31zM33,41H34V42H33zM35,41H36V42H35zM39,41H40V42H39zM42,41H43V42H42zM48,41H49V42H48zM49,41H50V42H49zM52,41H53V42H52zM5,42H6V43H5zM9,42H10V43H9zM10,42H11V43H10zM14,42H15V43H14zM15,42H16V43H15zM18,42H19V43H18zM19,42H20V43H19zM20,42H21V43H20zM23,42H24V43H23zM29,42H30V43H29zM30,42H31V43H30zM31,42H32V43H31zM32,42H33V43H32zM35,42H36V43H35zM40,42H41V43H40zM41,42H42V43H41zM45,42H46V43H45zM46,42H47V43H46zM47,42H48V43H47zM49,42H50V43H49zM50,42H51V43H50zM51,42H52V43H51zM52,42H53V43H52zM5,43H6V44H5zM6,43H7V44H6zM7,43H8V44H7zM11,43H12V44H11zM16,43H17V44H16zM20,43H21V44H20zM21,43H22V44H21zM24,43H25V44H24zM28,43H29V44H28zM29,43H30V44H29zM31,43H32V44H31zM32,43H33V44H32zM34,43H35V44H34zM37,43H38V44H37zM41,43H42V44H41zM43,43H44V44H43zM44,43H45V44H44zM47,43H48V44H47zM48,43H49V44H48zM49,43H50V44H49zM50,43H51V44H50zM51,43H52V44H51zM4,44H5V45H4zM5,44H6V45H5zM6,44H7V45H6zM10,44H11V45H10zM12,44H13V45H12zM13,44H14V45H13zM16,44H17V45H16zM17,44H18V45H17zM21,44H22V45H21zM25,44H26V45H25zM26,44H27V45H26zM27,44H28V45H27zM28,44H29V45H28zM29,44H30V45H29zM30,44H31V45H30zM32,44H33V45H32zM33,44H34V45H33zM35,44H36V45H35zM36,44H37V45H36zM37,44H38V45H37zM38,44H39V45H38zM40,44H41V45H40zM43,44H44V45H43zM44,44H45V45H44zM45,44H46V45H45zM46,44H47V45H46zM47,44H48V45H47zM48,44H49V45H48zM49,44H50V45H49zM12,45H13V46H12zM17,45H18V46H17zM19,45H20V46H19zM21,45H22V46H21zM26,45H27V46H26zM30,45H31V46H30zM32,45H33V46H32zM34,45H35V46H34zM37,45H38V46H37zM39,45H40V46H39zM40,45H41V46H40zM41,45H42V46H41zM42,45H43V46H42zM43,45H44V46H43zM44,45H45V46H44zM48,45H49V46H48zM49,45H50V46H49zM50,45H51V46H50zM51,45H52V46H51zM52,45H53V46H52zM4,46H5V47H4zM5,46H6V47H5zM6,46H7V47H6zM7,46H8V47H7zM8,46H9V47H8zM9,46H10V47H9zM10,46H11V47H10zM12,46H13V47H12zM13,46H14V47H13zM14,46H15V47H14zM15,46H16V47H15zM17,46H18V47H17zM18,46H19V47H18zM19,46H20V47H19zM26,46H27V47H26zM28,46H29V47H28zM30,46H31V47H30zM32,46H33V47H32zM33,46H34V47H33zM36,46H37V47H36zM37,46H38V47H37zM38,46H39V47H38zM40,46H41V47H40zM41,46H42V47H41zM42,46H43V47H42zM44,46H45V47H44zM46,46H47V47H46zM48,46H49V47H48zM49,46H50V47H49zM50,46H51V47H50zM52,46H53V47H52zM4,47H5V48H4zM10,47H11V48H10zM15,47H16V48H15zM16,47H17V48H16zM17,47H18V48H17zM18,47H19V48H18zM19,47H20V48H19zM20,47H21V48H20zM22,47H23V48H22zM24,47H25V48H24zM25,47H26V48H25zM26,47H27V48H26zM30,47H31V48H30zM34,47H35V48H34zM35,47H36V48H35zM39,47H40V48H39zM44,47H45V48H44zM48,47H49V48H48zM49,47H50V48H49zM4,48H5V49H4zM6,48H7V49H6zM7,48H8V49H7zM8,48H9V49H8zM10,48H11V49H10zM12,48H13V49H12zM14,48H15V49H14zM16,48H17V49H16zM17,48H18V49H17zM18,48H19V49H18zM19,48H20V49H19zM21,48H22V49H21zM23,48H24V49H23zM24,48H25V49H24zM26,48H27V49H26zM27,48H28V49H27zM28,48H29V49H28zM29,48H30V49H29zM30,48H31V49H30zM32,48H33V49H32zM37,48H38V49H37zM39,48H40V49H39zM40,48H41V49H40zM42,48H43V49H42zM43,48H44V49H43zM44,48H45V49H44zM45,48H46V49H45zM46,48H47V49H46zM47,48H48V49H47zM48,48H49V49H48zM51,48H52V49H51zM4,49H5V50H4zM6,49H7V50H6zM7,49H8V50H7zM8,49H9V50H8zM10,49H11V50H10zM12,49H13V50H12zM13,49H14V50H13zM14,49H15V50H14zM15,49H16V50H15zM17,49H18V50H17zM18,49H19V50H18zM20,49H21V50H20zM21,49H22V50H21zM24,49H25V50H24zM25,49H26V50H25zM26,49H27V50H26zM27,49H28V50H27zM29,49H30V50H29zM32,49H33V50H32zM35,49H36V50H35zM37,49H38V50H37zM38,49H39V50H38zM39,49H40V50H39zM40,49H41V50H40zM41,49H42V50H41zM42,49H43V50H42zM43,49H44V50H43zM45,49H46V50H45zM47,49H48V50H47zM49,49H50V50H49zM50,49H51V50H50zM52,49H53V50H52zM4,50H5V51H4zM6,50H7V51H6zM7,50H8V51H7zM8,50H9V51H8zM10,50H11V51H10zM14,50H15V51H14zM15,50H16V51H15zM16,50H17V51H16zM18,50H19V51H18zM19,50H20V51H19zM20,50H21V51H20zM22,50H23V51H22zM23,50H24V51H23zM24,50H25V51H24zM25,50H26V51H25zM28,50H29V51H28zM29,50H30V51H29zM30,50H31V51H30zM31,50H32V51H31zM32,50H33V51H32zM33,50H34V51H33zM34,50H35V51H34zM35,50H36V51H35zM37,50H38V51H37zM39,50H40V51H39zM40,50H41V51H40zM41,50H42V51H41zM42,50H43V51H42zM43,50H44V51H43zM46,50H47V51H46zM47,50H48V51H47zM48,50H49V51H48zM52,50H53V51H52zM4,51H5V52H4zM10,51H11V52H10zM15,51H16V52H15zM16,51H17V52H16zM19,51H20V52H19zM21,51H22V52H21zM22,51H23V52H22zM23,51H24V52H23zM24,51H25V52H24zM26,51H27V52H26zM28,51H29V52H28zM34,51H35V52H34zM36,51H37V52H36zM37,51H38V52H37zM39,51H40V52H39zM41,51H42V52H41zM46,51H47V52H46zM48,51H49V52H48zM50,51H51V52H50zM51,51H52V52H51zM52,51H53V52H52zM4,52H5V53H4zM5,52H6V53H5zM6,52H7V53H6zM7,52H8V53H7zM8,52H9V53H8zM9,52H10V53H9zM10,52H11V53H10zM13,52H14V53H13zM15,52H16V53H15zM16,52H17V53H16zM18,52H19V53H18zM21,52H22V53H21zM22,52H23V53H22zM32,52H33V53H32zM33,52H34V53H33zM34,52H35V53H34zM35,52H36V53H35zM36,52H37V53H36zM40,52H41V53H40zM42,52H43V53H42zM43,52H44V53H43zM44,52H45V53H44zM46,52H47V53H46zM47,52H48V53H47zM48,52H49V53H48zM49,52H50V53H49zM52,52H53V53H52z" id="qr-path" fill="#000000" fill-opacity="1" fill-rule="nonzero" stroke="none" /></svg>